<svg preserveAspectRatio="xMidYMid meet" viewBox="12.012012012012011 18 381.981981981982 458.40000000000003" xmlns="http://www.w3.org/2000/svg" version="1.0" style="max-height: 500px" width="381.981981981982" height="458.40000000000003">
<g stroke="none" fill="#000000" transform="translate(0.000000,600.000000) scale(0.100000,-0.100000)">
<path d="M1963 5720 c-175 -25 -291 -78 -383 -176 -142 -152 -188 -353 -167&#xA;-734 15 -292 -2 -433 -73 -602 -34 -82 -88 -163 -236 -359 -293 -390 -434&#xA;-722 -434 -1025 l0 -104 -52 -68 c-90 -117 -105 -129 -206 -169 -187 -72 -223&#xA;-136 -196 -354 16 -124 16 -128 -5 -195 -45 -146 -37 -229 26 -284 53 -47 95&#xA;-60 288 -86 213 -29 258 -41 389 -100 130 -60 227 -84 336 -84 143 0 255 48&#xA;308 133 l26 43 161 27 c223 38 308 43 440 23 61 -9 151 -19 201 -23 l92 -6 23&#xA;-51 c28 -63 99 -134 164 -166 66 -32 188 -39 271 -15 103 29 181 81 302 199&#xA;121 119 174 156 351 244 178 89 243 160 226 250 -9 50 -46 118 -95 177 -56 66&#xA;-65 85 -95 206 -31 124 -60 176 -114 212 -23 15 -41 32 -41 38 0 6 8 39 17 73&#xA;26 94 23 315 -5 429 -32 128 -93 277 -165 403 -73 129 -125 203 -257 369 -143&#xA;179 -196 254 -239 342 -64 129 -73 184 -76 463 -4 345 -28 492 -106 658 -47&#xA;102 -152 214 -239 254 -116 55 -294 78 -437 58z m285 -614 c41 -14 98 -69 122&#xA;-116 29 -57 42 -148 30 -210 -12 -63 -47 -140 -63 -140 -10 0 -96 29 -105 36&#xA;-2 1 4 15 14 30 26 38 25 151 -1 190 -38 59 -74 68 -120 32 -34 -27 -55 -75&#xA;-55 -128 0 -22 -1 -40 -3 -40 -2 0 -25 7 -51 16 l-48 17 4 66 c13 181 142 296&#xA;276 247z m-554 -46 c67 -32 116 -128 116 -226 0 -41 -2 -44 -42 -62 l-43 -18&#xA;-6 46 c-10 76 -48 124 -90 113 -49 -13 -66 -135 -29 -208 l21 -40 -23 -18&#xA;c-22 -19 -23 -18 -45 10 -57 71 -72 228 -29 318 25 54 47 78 86 94 35 14 39&#xA;13 84 -9z m267 -304 c31 -7 87 -30 124 -50 37 -20 108 -52 156 -71 111 -41&#xA;135 -57 156 -100 14 -29 14 -41 5 -74 -16 -52 -93 -121 -169 -151 -32 -13 -92&#xA;-44 -133 -68 -158 -95 -266 -97 -373 -7 -29 24 -83 65 -120 91 -94 65 -136&#xA;140 -107 193 5 10 35 37 67 61 32 24 83 65 113 91 62 53 102 75 157 88 53 13&#xA;61 12 124 -3z m474 -459 c61 -210 159 -454 290 -722 103 -210 139 -299 175&#xA;-439 16 -59 31 -110 33 -112 2 -2 24 -7 49 -10 l45 -6 11 43 c32 130 20 260&#xA;-37 404 -41 102 -87 177 -156 254 -55 61 -68 85 -41 75 43 -17 179 -205 237&#xA;-329 61 -130 74 -190 74 -346 l0 -136 73 -38 c134 -69 206 -157 188 -229 -9&#xA;-38 -36 -34 -36 7 0 17 -9 47 -20 65 -35 58 -197 144 -308 163 -108 19 -170&#xA;-15 -193 -107 -8 -33 -18 -45 -40 -55 -48 -19 -112 -99 -136 -170 -26 -75 -39&#xA;-155 -52 -332 -6 -82 -19 -160 -36 -220 -27 -93 -27 -94 -78 -125 -89 -54&#xA;-149 -81 -247 -114 -83 -27 -113 -32 -231 -36 -157 -5 -239 12 -367 75 -65 32&#xA;-81 46 -134 116 -75 100 -78 107 -44 107 35 0 81 24 100 52 25 35 19 96 -15&#xA;168 -42 89 -176 220 -331 323 -65 43 -135 99 -158 124 -148 169 -145 413 10&#xA;728 62 125 129 239 137 232 2 -3 -29 -73 -70 -155 -113 -230 -148 -397 -113&#xA;-545 17 -72 60 -167 76 -167 6 0 10 23 10 51 0 65 33 231 67 334 14 44 68 174&#xA;121 290 161 358 220 523 250 701 l18 103 32 -19 c18 -11 61 -44 96 -74 83 -71&#xA;134 -89 228 -85 60 3 87 11 139 38 35 18 116 59 179 92 64 32 129 72 145 89&#xA;16 16 30 28 32 27 1 -2 14 -42 28 -90z m648 -1436 c134 -64 160 -138 75 -215&#xA;-81 -74 -163 -94 -225 -56 -85 52 -111 244 -40 296 32 23 112 12 190 -25z&#xA;m-217 -304 c41 -59 104 -90 169 -83 60 7 174 61 232 110 34 30 49 36 86 36&#xA;101 0 167 -49 196 -145 10 -33 24 -85 31 -115 16 -71 38 -114 89 -175 51 -61&#xA;91 -139 91 -177 0 -48 -51 -92 -193 -164 -186 -94 -280 -159 -361 -249 -122&#xA;-135 -257 -208 -391 -208 -111 0 -183 39 -244 132 -36 56 -36 56 -35 161 1 94&#xA;7 123 53 285 44 156 53 199 62 325 18 250 46 349 117 411 l35 31 17 -66 c9&#xA;-37 30 -85 46 -109z m-1968 148 c84 -35 161 -135 270 -350 39 -77 94 -169 122&#xA;-205 260 -337 290 -396 260 -519 -22 -94 -97 -164 -200 -186 -110 -24 -290 10&#xA;-430 80 -83 42 -174 68 -295 85 -49 7 -131 18 -181 25 -201 28 -237 88 -174&#xA;294 l23 73 -18 129 c-17 122 -17 131 -1 174 22 55 59 87 133 114 135 49 158&#xA;67 264 207 69 90 140 115 227 79z"/>
<path d="M2160 4440 c-155 -87 -205 -104 -295 -105 -88 0 -153 29 -244 109&#xA;-36 31 -68 56 -73 56 -44 0 74 -115 167 -162 47 -24 77 -32 135 -36 98 -5 165&#xA;17 326 109 67 38 126 69 133 69 6 0 11 7 11 15 0 27 -33 16 -160 -55z"/>
<path d="M184 1215 c-9 -23 5 -35 42 -35 19 0 48 -7 64 -15 l30 -16 0 -439 c0&#xA;-424 -1 -440 -19 -450 -11 -5 -32 -10 -48 -10 -48 0 -73 -11 -73 -31 0 -18 14&#xA;-19 370 -19 l370 0 0 33 c0 17 7 72 16 121 8 49 13 95 10 103 -11 29 -38 7&#xA;-61 -51 -30 -73 -77 -123 -129 -137 -21 -6 -90 -9 -152 -7 -93 2 -117 6 -131&#xA;21 -17 16 -18 50 -21 425 -1 224 0 416 2 428 7 26 46 44 96 44 36 0 40 3 40&#xA;25 l0 24 -201 0 c-162 0 -201 -3 -205 -14z"/>
<path d="M1150 1160 c-57 -57 9 -153 85 -124 24 10 46 60 39 89 -13 53 -86 73&#xA;-124 35z"/>
<path d="M1224 890 c-11 -4 -55 -14 -98 -21 -68 -12 -77 -15 -74 -34 2 -15 12&#xA;-21 38 -23 59 -5 60 -10 60 -282 0 -227 -2 -248 -18 -263 -10 -10 -28 -17 -39&#xA;-17 -35 0 -53 -11 -53 -31 0 -18 10 -19 170 -19 160 0 170 1 170 19 0 21 -19&#xA;31 -55 31 -54 0 -55 5 -55 341 0 327 1 318 -46 299z"/>
<path d="M1585 880 c-38 -10 -83 -19 -98 -19 -26 -1 -47 -24 -33 -38 3 -3 23&#xA;-9 43 -12 60 -10 63 -24 63 -288 0 -220 -1 -234 -20 -253 -11 -11 -29 -20 -39&#xA;-20 -33 0 -51 -11 -51 -31 0 -18 10 -19 165 -19 155 0 165 1 165 19 0 20 -18&#xA;31 -50 31 -46 0 -50 18 -50 244 l0 213 46 42 c54 51 99 71 156 71 55 0 84 -21&#xA;98 -68 5 -20 10 -135 10 -254 0 -215 0 -218 -22 -232 -13 -7 -35 -16 -50 -20&#xA;-19 -4 -28 -13 -28 -26 0 -19 7 -20 165 -20 155 0 165 1 165 19 0 20 -18 31&#xA;-54 31 -13 0 -30 8 -39 18 -15 16 -17 47 -17 230 0 116 -5 234 -11 262 -35&#xA;165 -221 186 -378 44 l-54 -49 7 73 c8 82 15 78 -89 52z"/>
<path d="M2287 884 c-4 -4 -7 -15 -7 -25 0 -12 11 -19 39 -24 22 -4 44 -12 50&#xA;-18 5 -7 11 -118 13 -252 3 -235 4 -241 28 -284 37 -66 69 -85 149 -89 87 -5&#xA;127 8 197 65 l56 45 -3 -58 c-3 -66 10 -78 54 -50 13 9 57 24 98 35 60 15 75&#xA;23 77 40 3 18 -2 21 -35 21 -22 0 -48 6 -59 14 -18 14 -19 29 -19 295 l0 281&#xA;-92 2 c-51 1 -101 2 -110 2 -11 1 -19 -7 -21 -19 -2 -16 7 -23 45 -35 l48 -15&#xA;3 -224 2 -225 -32 -34 c-71 -74 -161 -93 -217 -47 -46 39 -54 94 -50 363 l4&#xA;232 -92 0 c-50 0 -98 2 -105 5 -8 3 -17 2 -21 -1z"/>
<path d="M3104 881 c-15 -15 0 -39 28 -45 41 -8 85 -56 182 -199 l79 -116 -59&#xA;-78 c-99 -131 -152 -182 -201 -194 -32 -8 -43 -16 -43 -30 0 -18 9 -19 130&#xA;-19 121 0 130 1 130 19 0 12 -11 23 -30 30 -16 5 -30 14 -30 20 0 14 123 194&#xA;135 198 6 1 24 -16 40 -39 65 -91 105 -151 105 -160 0 -5 -13 -14 -30 -19 -19&#xA;-7 -30 -18 -30 -30 0 -18 9 -19 155 -19 145 0 155 1 155 19 0 14 -12 22 -46&#xA;30 -26 7 -57 24 -71 39 -21 22 -174 231 -196 268 -6 10 157 224 192 252 9 6&#xA;35 18 59 24 32 9 42 17 42 33 0 19 -5 20 -127 19 -119 -2 -128 -3 -131 -22 -2&#xA;-15 4 -21 32 -26 20 -4 36 -13 36 -20 0 -13 -123 -190 -139 -200 -12 -8 -145&#xA;190 -137 203 4 6 21 14 39 19 21 5 32 14 32 26 0 16 -13 18 -148 20 -82 0&#xA;-151 -1 -153 -3z"/>
</g>
</svg>