<?xml version="1.0" standalone="no"?>
<!DOCTYPE svg PUBLIC "-//W3C//DTD SVG 20010904//EN"
 "http://www.w3.org/TR/2001/REC-SVG-20010904/DTD/svg10.dtd">
<svg version="1.0" xmlns="http://www.w3.org/2000/svg"
 width="600.000000pt" height="338.000000pt" viewBox="0 0 600.000000 338.000000"
 preserveAspectRatio="xMidYMid meet">
<g transform="translate(0.000000,338.000000) scale(0.100000,-0.100000)"
fill="#000000" stroke="none">
<path d="M1445 3158 c-18 -46 -248 -589 -375 -885 l-78 -183 304 0 c167 0 304
-2 304 -4 0 -2 -76 -181 -168 -397 l-169 -394 -305 -3 -305 -2 -12 -28 c-12
-25 -411 -963 -444 -1044 l-16 -38 1497 0 1497 0 189 450 189 450 402 0 c418
0 541 7 710 41 374 75 634 247 838 552 99 148 224 424 282 622 36 120 45 291
21 385 -77 298 -334 472 -756 510 -74 6 -740 10 -1851 10 l-1737 0 -17 -42z
m3693 -191 c236 -42 373 -125 441 -267 23 -50 26 -66 26 -170 -1 -129 -18
-200 -102 -405 -214 -526 -465 -736 -983 -821 -92 -15 -208 -18 -915 -21
l-810 -5 -38 -91 c-20 -51 -37 -95 -37 -99 0 -5 137 -8 305 -8 l305 0 -18 -37
c-10 -21 -77 -176 -148 -346 l-128 -307 -1268 0 c-1203 0 -1267 1 -1261 18 4
9 69 163 144 342 l137 325 308 5 307 5 248 585 c137 322 252 593 255 603 5 16
-14 17 -296 17 -238 0 -301 3 -297 13 3 6 70 164 149 350 l143 338 1720 -4
c1537 -3 1730 -6 1813 -20z"/>
<path d="M3166 2149 c-32 -77 -61 -149 -63 -160 -6 -20 0 -20 503 -17 494 3
511 4 561 24 107 44 192 142 196 225 2 37 -2 45 -23 56 -20 10 -144 13 -570
13 l-545 0 -59 -141z"/>
</g>
</svg>
